<?xml version="1.0" encoding="UTF-8" standalone="no"?>
<svg
   xmlns:dc="http://purl.org/dc/elements/1.1/"
   xmlns:cc="http://creativecommons.org/ns#"
   xmlns:rdf="http://www.w3.org/1999/02/22-rdf-syntax-ns#"
   xmlns:svg="http://www.w3.org/2000/svg"
   xmlns="http://www.w3.org/2000/svg"
   viewBox="0 0 188.976 188.976"
   height="188.976"
   width="188.976"
   xml:space="preserve"
   id="svg2"
   version="1.1"><metadata
     id="metadata8"><rdf:RDF><cc:Work
         rdf:about=""><dc:format>image/svg+xml</dc:format><dc:type
           rdf:resource="http://purl.org/dc/dcmitype/StillImage" /></cc:Work></rdf:RDF></metadata><defs
     id="defs6"><clipPath
       id="clipPath18"
       clipPathUnits="userSpaceOnUse"><path
         id="path16"
         d="M 0,141.732 H 141.732 V 0 H 0 Z" /></clipPath><linearGradient
       id="linearGradient168"
       spreadMethod="pad"
       gradientTransform="matrix(-1.1e-6,24.741211,24.741211,1.1e-6,29.080566,51.84082)"
       gradientUnits="userSpaceOnUse"
       y2="0"
       x2="1"
       y1="0"
       x1="0"><stop
         id="stop156"
         offset="0"
         style="stop-opacity:1;stop-color:#4998d2" /><stop
         id="stop158"
         offset="0.1"
         style="stop-opacity:1;stop-color:#2a88c5" /><stop
         id="stop160"
         offset="0.4"
         style="stop-opacity:1;stop-color:#2c79bd" /><stop
         id="stop162"
         offset="0.6"
         style="stop-opacity:1;stop-color:#2c79bd" /><stop
         id="stop164"
         offset="0.9"
         style="stop-opacity:1;stop-color:#2a88c5" /><stop
         id="stop166"
         offset="1"
         style="stop-opacity:1;stop-color:#4998d2" /></linearGradient><clipPath
       id="clipPath178"
       clipPathUnits="userSpaceOnUse"><path
         id="path176"
         d="M 0,141.732 H 141.732 V 0 H 0 Z" /></clipPath><clipPath
       id="clipPath186"
       clipPathUnits="userSpaceOnUse"><path
         id="path184"
         d="M 14.1758,76.5825 H 43.9863 V 51.8408 H 14.1758 Z" /></clipPath><clipPath
       id="clipPath214"
       clipPathUnits="userSpaceOnUse"><path
         id="path212"
         d="M 14.1729,71.2739 H 43.9883 V 51.6514 H 14.1729 Z" /></clipPath><linearGradient
       id="linearGradient266"
       spreadMethod="pad"
       gradientTransform="matrix(-1.1e-6,24.741211,24.741211,1.1e-6,83.160156,51.84082)"
       gradientUnits="userSpaceOnUse"
       y2="0"
       x2="1"
       y1="0"
       x1="0"><stop
         id="stop254"
         offset="0"
         style="stop-opacity:1;stop-color:#4998d2" /><stop
         id="stop256"
         offset="0.1"
         style="stop-opacity:1;stop-color:#2a88c5" /><stop
         id="stop258"
         offset="0.4"
         style="stop-opacity:1;stop-color:#2c79bd" /><stop
         id="stop260"
         offset="0.6"
         style="stop-opacity:1;stop-color:#2c79bd" /><stop
         id="stop262"
         offset="0.9"
         style="stop-opacity:1;stop-color:#2a88c5" /><stop
         id="stop264"
         offset="1"
         style="stop-opacity:1;stop-color:#4998d2" /></linearGradient><clipPath
       id="clipPath276"
       clipPathUnits="userSpaceOnUse"><path
         id="path274"
         d="M 0,141.732 H 141.732 V 0 H 0 Z" /></clipPath><clipPath
       id="clipPath306"
       clipPathUnits="userSpaceOnUse"><path
         id="path304"
         d="M 68.2549,71.2739 H 98.0654 V 51.6514 H 68.2549 Z" /></clipPath><linearGradient
       id="linearGradient358"
       spreadMethod="pad"
       gradientTransform="matrix(-1.1e-6,24.741211,24.741211,1.1e-6,113.59473,51.84082)"
       gradientUnits="userSpaceOnUse"
       y2="0"
       x2="1"
       y1="0"
       x1="0"><stop
         id="stop346"
         offset="0"
         style="stop-opacity:1;stop-color:#4998d2" /><stop
         id="stop348"
         offset="0.1"
         style="stop-opacity:1;stop-color:#2a88c5" /><stop
         id="stop350"
         offset="0.4"
         style="stop-opacity:1;stop-color:#2c79bd" /><stop
         id="stop352"
         offset="0.6"
         style="stop-opacity:1;stop-color:#2c79bd" /><stop
         id="stop354"
         offset="0.9"
         style="stop-opacity:1;stop-color:#2a88c5" /><stop
         id="stop356"
         offset="1"
         style="stop-opacity:1;stop-color:#4998d2" /></linearGradient><clipPath
       id="clipPath368"
       clipPathUnits="userSpaceOnUse"><path
         id="path366"
         d="M 0,141.732 H 141.732 V 0 H 0 Z" /></clipPath><clipPath
       id="clipPath396"
       clipPathUnits="userSpaceOnUse"><path
         id="path394"
         d="M 99.6299,76.9321 H 127.56 V 51.6514 H 99.6299 Z" /></clipPath><clipPath
       id="clipPath428"
       clipPathUnits="userSpaceOnUse"><path
         id="path426"
         d="M 62.038,59.739 V 59.2 59.3 59.839 Z" /></clipPath><clipPath
       id="clipPath440"
       clipPathUnits="userSpaceOnUse"><path
         id="path438"
         d="M 0,141.732 H 141.732 V 0 H 0 Z" /></clipPath><clipPath
       id="clipPath464"
       clipPathUnits="userSpaceOnUse"><path
         id="path462"
         d="m 43.693,59.3 c 0,-3.143 0.357,-9.305 12.89,-9.305 v 0 c 11.032,0 11.335,5.693 11.335,8.092 v 0 0.541 c 0,-2.4 -0.303,-8.092 -11.335,-8.092 v 0 c -12.533,0 -12.89,6.162 -12.89,9.303 v 0 z" /></clipPath><linearGradient
       id="linearGradient508"
       spreadMethod="pad"
       gradientTransform="matrix(-1.6e-6,36.619629,36.619629,1.6e-6,58.931152,50.536133)"
       gradientUnits="userSpaceOnUse"
       y2="0"
       x2="1"
       y1="0"
       x1="0"><stop
         id="stop494"
         offset="0"
         style="stop-opacity:1;stop-color:#4998d2" /><stop
         id="stop496"
         offset="0.1"
         style="stop-opacity:1;stop-color:#2a88c5" /><stop
         id="stop498"
         offset="0.4"
         style="stop-opacity:1;stop-color:#2c79bd" /><stop
         id="stop500"
         offset="0.6"
         style="stop-opacity:1;stop-color:#2c79bd" /><stop
         id="stop502"
         offset="0.75"
         style="stop-opacity:1;stop-color:#2a88c5" /><stop
         id="stop504"
         offset="0.9"
         style="stop-opacity:1;stop-color:#4998d2" /><stop
         id="stop506"
         offset="1"
         style="stop-opacity:1;stop-color:#4998d2" /></linearGradient><clipPath
       id="clipPath518"
       clipPathUnits="userSpaceOnUse"><path
         id="path516"
         d="m 44.188,91.017 c 0,-0.14 10e-4,-0.268 10e-4,-0.383 v 0 0.54 c 0,0.115 -10e-4,0.243 -10e-4,0.383 v 0 z" /></clipPath><clipPath
       id="clipPath530"
       clipPathUnits="userSpaceOnUse"><path
         id="path528"
         d="m 68.416,89.81 v -0.54 c 0,0.164 0.001,0.341 0.001,0.528 v 0 0.54 c 0,-0.187 -0.001,-0.364 -0.001,-0.528" /></clipPath><linearGradient
       id="linearGradient558"
       spreadMethod="pad"
       gradientTransform="matrix(-1.6e-6,36.625,36.625,1.6e-6,53.177246,63.022461)"
       gradientUnits="userSpaceOnUse"
       y2="0"
       x2="1"
       y1="0"
       x1="0"><stop
         id="stop548"
         offset="0"
         style="stop-opacity:1;stop-color:#2a88c5" /><stop
         id="stop550"
         offset="0.1"
         style="stop-opacity:1;stop-color:#2a88c5" /><stop
         id="stop552"
         offset="0.4"
         style="stop-opacity:1;stop-color:#2c79bd" /><stop
         id="stop554"
         offset="0.65"
         style="stop-opacity:1;stop-color:#4998d2" /><stop
         id="stop556"
         offset="1"
         style="stop-opacity:1;stop-color:#71b5e2" /></linearGradient><clipPath
       id="clipPath568"
       clipPathUnits="userSpaceOnUse"><path
         id="path566"
         d="M 0,141.732 H 141.732 V 0 H 0 Z" /></clipPath><clipPath
       id="clipPath576"
       clipPathUnits="userSpaceOnUse"><path
         id="path574"
         d="M 68.2549,76.5825 H 98.0654 V 51.8408 H 68.2549 Z" /></clipPath><clipPath
       id="clipPath592"
       clipPathUnits="userSpaceOnUse"><path
         id="path590"
         d="M 99.6299,76.5825 H 127.56 V 51.8408 H 99.6299 Z" /></clipPath><clipPath
       id="clipPath608"
       clipPathUnits="userSpaceOnUse"><path
         id="path606"
         d="m 43.6929,87.1562 h 30.476 V 50.5361 h -30.476 z" /></clipPath><clipPath
       id="clipPath624"
       clipPathUnits="userSpaceOnUse"><path
         id="path622"
         d="m 37.9365,99.6479 h 30.481 V 63.0225 h -30.481 z" /></clipPath><clipPath
       id="clipPath640"
       clipPathUnits="userSpaceOnUse"><path
         id="path638"
         d="m 50.067,90.45 v -0.524 c 10e-4,1.273 0.097,4.196 5.456,4.196 v 0 c 5.606,0 5.851,-2.936 5.905,-4.852 v 0 0.54 c -0.054,1.916 -0.299,4.852 -5.905,4.852 v 0 c -5.38,0 -5.456,-2.946 -5.456,-4.212 m 0,-0.539 v 0.015 c 0,-0.005 0,-0.01 0,-0.015" /></clipPath><clipPath
       id="clipPath664"
       clipPathUnits="userSpaceOnUse"><path
         id="path662"
         d="M 0,141.732 H 141.732 V 0 H 0 Z" /></clipPath><clipPath
       id="clipPath682"
       clipPathUnits="userSpaceOnUse"><path
         id="path680"
         d="M 37.9365,95.0127 H 68.416 V 62.833 H 37.9365 Z" /></clipPath><clipPath
       id="clipPath686"
       clipPathUnits="userSpaceOnUse"><path
         id="path684"
         d="m 50.067,90.261 v 0.54 c 0,1.266 0.076,4.212 5.455,4.212 5.607,0 5.852,-2.936 5.906,-4.852 v -0.54 c -0.054,1.916 -0.299,4.852 -5.906,4.852 -5.379,0 -5.455,-2.946 -5.455,-4.212" /></clipPath><clipPath
       id="clipPath732"
       clipPathUnits="userSpaceOnUse"><path
         id="path730"
         d="M 43.6934,78.314 H 74.1689 V 50.3467 H 43.6934 Z" /></clipPath><clipPath
       id="clipPath736"
       clipPathUnits="userSpaceOnUse"><path
         id="path734"
         d="m 67.918,58.978 v -0.54 c 0,-2.4 -0.303,-8.091 -11.335,-8.091 -12.533,0 -12.89,6.16 -12.89,9.302 v 0.541 c 0,-3.142 0.357,-9.304 12.89,-9.304 11.032,0 11.335,5.693 11.335,8.092" /></clipPath></defs><g
     transform="matrix(1.3333333,0,0,-1.3333333,0,188.976)"
     id="g10"><g
       id="g12"><g
         clip-path="url(#clipPath18)"
         id="g14"><g
           transform="translate(16.7139,46.751)"
           id="g20"><path
             id="path22"
             style="fill:#373535;fill-opacity:1;fill-rule:nonzero;stroke:none"
             d="M 0,0 C -0.027,0.09 -0.057,0.193 -0.087,0.312 -0.117,0.432 -0.146,0.549 -0.173,0.666 -0.2,0.781 -0.226,0.889 -0.249,0.986 -0.272,1.084 -0.292,1.16 -0.305,1.211 -0.318,1.16 -0.338,1.084 -0.361,0.986 -0.385,0.889 -0.41,0.781 -0.437,0.67 -0.464,0.557 -0.493,0.439 -0.523,0.32 -0.554,0.201 -0.583,0.094 -0.61,0 l -0.264,-0.936 h 1.138 z m 0.884,-3.137 -0.417,1.465 h -1.544 l -0.406,-1.465 h -1.058 l 1.748,5.545 h 1.026 l 1.738,-5.545 z" /></g><g
           transform="translate(22.0781,44.7529)"
           id="g24"><path
             id="path26"
             style="fill:#373535;fill-opacity:1;fill-rule:nonzero;stroke:none"
             d="m 0,0 c 0,-0.395 -0.147,-0.699 -0.441,-0.91 -0.295,-0.211 -0.704,-0.317 -1.225,-0.317 -0.285,0 -0.569,0.04 -0.854,0.12 -0.285,0.078 -0.545,0.185 -0.782,0.324 l 0.376,0.635 c 0.488,-0.239 0.901,-0.358 1.239,-0.358 0.217,0 0.388,0.041 0.513,0.123 0.125,0.082 0.189,0.192 0.189,0.328 0,0.075 -0.02,0.141 -0.057,0.2 C -1.078,0.201 -1.138,0.26 -1.218,0.318 -1.3,0.375 -1.405,0.437 -1.536,0.5 -1.668,0.564 -1.825,0.637 -2.007,0.723 -2.169,0.795 -2.318,0.871 -2.457,0.947 -2.595,1.023 -2.712,1.109 -2.806,1.201 -2.9,1.293 -2.975,1.4 -3.028,1.521 c -0.054,0.124 -0.081,0.264 -0.081,0.43 0,0.363 0.133,0.647 0.4,0.85 0.267,0.203 0.645,0.306 1.134,0.306 0.27,0 0.532,-0.035 0.782,-0.103 0.251,-0.068 0.475,-0.164 0.671,-0.285 L -0.518,2.076 c -0.176,0.096 -0.358,0.172 -0.544,0.227 -0.186,0.056 -0.364,0.082 -0.534,0.082 -0.182,0 -0.316,-0.033 -0.401,-0.102 -0.084,-0.068 -0.126,-0.156 -0.126,-0.262 0,-0.062 0.011,-0.121 0.035,-0.169 0.024,-0.051 0.067,-0.102 0.131,-0.157 0.064,-0.05 0.151,-0.109 0.264,-0.17 0.11,-0.058 0.257,-0.13 0.439,-0.209 C -1.052,1.227 -0.873,1.139 -0.718,1.055 -0.563,0.971 -0.434,0.877 -0.329,0.777 -0.225,0.676 -0.144,0.564 -0.086,0.441 -0.028,0.316 0,0.17 0,0" /></g><g
           transform="translate(23.958,42.1475)"
           id="g28"><path
             id="path30"
             style="fill:#373535;fill-opacity:1;fill-rule:nonzero;stroke:none"
             d="m 0,0 h -0.955 l 0.579,1.467 -1.483,4.158 h 1.036 l 0.62,-1.973 c 0.026,-0.08 0.056,-0.173 0.086,-0.281 0.03,-0.107 0.06,-0.217 0.091,-0.324 C 0.005,2.938 0.031,2.836 0.056,2.742 0.079,2.646 0.098,2.572 0.111,2.52 c 0.014,0.052 0.035,0.126 0.061,0.222 0.027,0.094 0.056,0.197 0.087,0.309 0.03,0.111 0.06,0.22 0.092,0.328 0.03,0.107 0.058,0.201 0.086,0.281 l 0.629,1.965 h 1.037 z" /></g><g
           transform="translate(28.8545,43.6143)"
           id="g32"><path
             id="path34"
             style="fill:#373535;fill-opacity:1;fill-rule:nonzero;stroke:none"
             d="m 0,0 v 2.559 c 0,0.347 -0.048,0.595 -0.146,0.744 -0.096,0.148 -0.265,0.22 -0.505,0.22 -0.154,0 -0.299,-0.031 -0.436,-0.097 C -1.224,3.359 -1.339,3.266 -1.433,3.145 V 0 h -0.985 v 4.158 h 0.985 L -1.442,3.873 c 0.108,0.106 0.25,0.193 0.426,0.266 0.176,0.072 0.379,0.107 0.61,0.107 0.514,0 0.875,-0.129 1.082,-0.385 C 0.883,3.605 0.985,3.213 0.985,2.686 V 0 Z" /></g><g
           transform="translate(33.1523,43.7295)"
           id="g36"><path
             id="path38"
             style="fill:#373535;fill-opacity:1;fill-rule:nonzero;stroke:none"
             d="m 0,0 c -0.237,-0.135 -0.549,-0.203 -0.935,-0.203 -0.555,0 -1.004,0.176 -1.346,0.525 -0.342,0.354 -0.513,0.893 -0.513,1.621 0,0.735 0.168,1.282 0.503,1.645 0.335,0.361 0.801,0.543 1.396,0.543 0.19,0 0.362,-0.02 0.514,-0.057 C -0.229,4.037 -0.092,3.984 0.03,3.918 0.152,3.852 0.261,3.773 0.355,3.682 0.45,3.592 0.535,3.494 0.609,3.395 L -0.092,2.918 C -0.227,3.088 -0.355,3.209 -0.478,3.283 -0.6,3.357 -0.749,3.395 -0.925,3.395 -1.236,3.395 -1.461,3.27 -1.601,3.02 -1.739,2.77 -1.809,2.416 -1.809,1.959 c 0,-0.441 0.072,-0.789 0.213,-1.043 0.143,-0.256 0.377,-0.383 0.701,-0.383 0.164,0 0.305,0.035 0.427,0.108 0.122,0.07 0.251,0.187 0.387,0.351 L 0.62,0.541 C 0.444,0.316 0.237,0.137 0,0" /></g><g
           transform="translate(36.6982,43.6143)"
           id="g40"><path
             id="path42"
             style="fill:#373535;fill-opacity:1;fill-rule:nonzero;stroke:none"
             d="m 0,0 v 2.559 c 0,0.347 -0.048,0.595 -0.146,0.744 -0.096,0.148 -0.265,0.22 -0.505,0.22 -0.154,0 -0.299,-0.031 -0.436,-0.097 C -1.224,3.359 -1.34,3.266 -1.433,3.145 V 0 h -0.985 v 5.379 l 0.985,0.396 -0.01,-1.902 c 0.108,0.106 0.251,0.193 0.427,0.266 0.176,0.072 0.379,0.107 0.61,0.107 0.514,0 0.875,-0.129 1.082,-0.385 0.207,-0.256 0.31,-0.648 0.31,-1.175 L 0.986,0 Z" /></g><g
           transform="translate(40.8125,46.9561)"
           id="g44"><path
             id="path46"
             style="fill:#373535;fill-opacity:1;fill-rule:nonzero;stroke:none"
             d="m 0,0 c -0.095,0.043 -0.192,0.074 -0.294,0.096 -0.102,0.021 -0.23,0.031 -0.386,0.031 -0.135,0 -0.268,-0.022 -0.396,-0.066 -0.129,-0.045 -0.251,-0.131 -0.366,-0.258 v -3.145 h -0.986 v 4.158 h 0.986 V 0.531 c 0.108,0.106 0.244,0.194 0.406,0.266 0.163,0.072 0.343,0.107 0.539,0.107 0.169,0 0.313,-0.013 0.432,-0.039 C 0.053,0.838 0.153,0.803 0.234,0.762 Z" /></g><g
           transform="translate(43.8408,45.6885)"
           id="g48"><path
             id="path50"
             style="fill:#373535;fill-opacity:1;fill-rule:nonzero;stroke:none"
             d="M 0,0 C 0,0.473 -0.081,0.83 -0.243,1.072 -0.406,1.314 -0.64,1.436 -0.944,1.436 -1.562,1.436 -1.869,0.955 -1.869,0 c 0,-0.951 0.311,-1.426 0.934,-1.426 0.305,0 0.538,0.131 0.697,0.391 C -0.08,-0.775 0,-0.43 0,0 m 0.985,0.016 c 0,-0.729 -0.177,-1.274 -0.533,-1.635 -0.355,-0.361 -0.828,-0.543 -1.417,-0.543 -0.277,0 -0.532,0.043 -0.763,0.131 -0.229,0.086 -0.429,0.219 -0.599,0.394 -0.169,0.178 -0.299,0.401 -0.391,0.67 -0.091,0.27 -0.136,0.588 -0.136,0.951 0,0.735 0.172,1.282 0.517,1.645 0.346,0.361 0.816,0.543 1.412,0.543 0.285,0 0.544,-0.045 0.779,-0.135 C 0.087,1.945 0.286,1.814 0.452,1.637 0.618,1.459 0.749,1.236 0.844,0.967 0.938,0.697 0.985,0.381 0.985,0.016" /></g><g
           transform="translate(47.793,43.6143)"
           id="g52"><path
             id="path54"
             style="fill:#373535;fill-opacity:1;fill-rule:nonzero;stroke:none"
             d="m 0,0 v 2.559 c 0,0.347 -0.048,0.595 -0.145,0.744 -0.097,0.148 -0.266,0.22 -0.506,0.22 -0.154,0 -0.299,-0.031 -0.436,-0.097 C -1.224,3.359 -1.339,3.266 -1.433,3.145 V 0 h -0.985 v 4.158 h 0.985 L -1.442,3.873 c 0.108,0.106 0.25,0.193 0.426,0.266 0.176,0.072 0.379,0.107 0.61,0.107 0.514,0 0.876,-0.129 1.082,-0.385 C 0.882,3.605 0.985,3.213 0.985,2.686 V 0 Z" /></g><g
           transform="translate(52.1514,45.6885)"
           id="g56"><path
             id="path58"
             style="fill:#373535;fill-opacity:1;fill-rule:nonzero;stroke:none"
             d="M 0,0 C 0,0.473 -0.081,0.83 -0.243,1.072 -0.405,1.314 -0.64,1.436 -0.944,1.436 -1.561,1.436 -1.869,0.955 -1.869,0 c 0,-0.951 0.311,-1.426 0.934,-1.426 0.306,0 0.538,0.131 0.697,0.391 C -0.079,-0.775 0,-0.43 0,0 m 0.986,0.016 c 0,-0.729 -0.177,-1.274 -0.534,-1.635 -0.354,-0.361 -0.827,-0.543 -1.417,-0.543 -0.277,0 -0.531,0.043 -0.762,0.131 -0.23,0.086 -0.43,0.219 -0.599,0.394 -0.169,0.178 -0.3,0.401 -0.392,0.67 -0.091,0.27 -0.136,0.588 -0.136,0.951 0,0.735 0.172,1.282 0.518,1.645 0.345,0.361 0.815,0.543 1.411,0.543 0.285,0 0.544,-0.045 0.779,-0.135 C 0.087,1.945 0.287,1.814 0.452,1.637 0.619,1.459 0.749,1.236 0.844,0.967 0.938,0.697 0.986,0.381 0.986,0.016" /></g><g
           transform="translate(56.0732,43.6143)"
           id="g60"><path
             id="path62"
             style="fill:#373535;fill-opacity:1;fill-rule:nonzero;stroke:none"
             d="M 0,0 0.011,0.285 C -0.098,0.178 -0.24,0.09 -0.416,0.018 c -0.177,-0.071 -0.38,-0.106 -0.609,-0.106 -0.515,0 -0.876,0.127 -1.082,0.385 -0.207,0.256 -0.311,0.646 -0.311,1.176 v 2.685 h 0.985 V 1.6 c 0,-0.35 0.049,-0.598 0.146,-0.746 0.097,-0.147 0.266,-0.221 0.506,-0.221 0.154,0 0.299,0.033 0.436,0.099 0.136,0.067 0.252,0.161 0.345,0.28 V 4.158 H 0.986 L 0.986,0 Z" /></g><g
           transform="translate(60.7783,44.7529)"
           id="g64"><path
             id="path66"
             style="fill:#373535;fill-opacity:1;fill-rule:nonzero;stroke:none"
             d="m 0,0 c 0,-0.395 -0.147,-0.699 -0.441,-0.91 -0.295,-0.211 -0.703,-0.317 -1.226,-0.317 -0.284,0 -0.568,0.04 -0.853,0.12 -0.285,0.078 -0.545,0.185 -0.783,0.324 l 0.376,0.635 c 0.488,-0.239 0.902,-0.358 1.24,-0.358 0.216,0 0.388,0.041 0.513,0.123 0.125,0.082 0.189,0.192 0.189,0.328 0,0.075 -0.019,0.141 -0.056,0.2 C -1.079,0.201 -1.138,0.26 -1.219,0.318 -1.3,0.375 -1.406,0.437 -1.537,0.5 -1.668,0.564 -1.825,0.637 -2.008,0.723 -2.169,0.795 -2.319,0.871 -2.458,0.947 -2.596,1.023 -2.712,1.109 -2.807,1.201 -2.9,1.293 -2.975,1.4 -3.028,1.521 c -0.055,0.124 -0.081,0.264 -0.081,0.43 0,0.363 0.133,0.647 0.4,0.85 0.267,0.203 0.645,0.306 1.134,0.306 0.271,0 0.532,-0.035 0.782,-0.103 0.251,-0.068 0.475,-0.164 0.671,-0.285 L -0.519,2.076 c -0.175,0.096 -0.357,0.172 -0.543,0.227 -0.186,0.056 -0.364,0.082 -0.534,0.082 -0.182,0 -0.316,-0.033 -0.401,-0.102 -0.085,-0.068 -0.127,-0.156 -0.127,-0.262 0,-0.062 0.012,-0.121 0.035,-0.169 0.025,-0.051 0.068,-0.102 0.132,-0.157 0.063,-0.05 0.151,-0.109 0.263,-0.17 0.111,-0.058 0.257,-0.13 0.44,-0.209 0.202,-0.089 0.381,-0.177 0.535,-0.261 0.156,-0.084 0.285,-0.178 0.39,-0.278 C -0.225,0.676 -0.144,0.564 -0.086,0.441 -0.028,0.316 0,0.17 0,0" /></g><g
           transform="translate(65.8672,43.9619)"
           id="g68"><path
             id="path70"
             style="fill:#373535;fill-opacity:1;fill-rule:nonzero;stroke:none"
             d="m 0,0 c -0.292,-0.291 -0.745,-0.436 -1.36,-0.436 -0.298,0 -0.554,0.036 -0.768,0.106 -0.213,0.072 -0.39,0.172 -0.528,0.297 -0.139,0.129 -0.249,0.279 -0.33,0.453 -0.081,0.174 -0.139,0.367 -0.173,0.578 l 0.904,0.182 c 0.074,-0.311 0.178,-0.53 0.31,-0.657 0.133,-0.127 0.327,-0.191 0.585,-0.191 0.31,0 0.524,0.08 0.639,0.238 0.116,0.159 0.173,0.373 0.173,0.643 V 5.197 H 0.437 V 1.236 C 0.437,0.701 0.292,0.289 0,0" /></g><g
           transform="translate(69.4238,45.4346)"
           id="g72"><path
             id="path74"
             style="fill:#373535;fill-opacity:1;fill-rule:nonzero;stroke:none"
             d="M 0,0 C -0.113,0.059 -0.229,0.1 -0.346,0.123 -0.463,0.146 -0.611,0.16 -0.792,0.16 -1.02,0.16 -1.203,0.105 -1.344,0 c -0.14,-0.105 -0.21,-0.271 -0.21,-0.498 0,-0.248 0.058,-0.43 0.175,-0.547 0.117,-0.117 0.279,-0.174 0.486,-0.174 0.409,0 0.706,0.129 0.893,0.389 z m 0,-1.82 0.01,0.285 c -0.135,-0.123 -0.293,-0.215 -0.472,-0.279 -0.18,-0.063 -0.389,-0.094 -0.625,-0.094 -0.196,0 -0.383,0.029 -0.559,0.088 -0.176,0.056 -0.33,0.144 -0.461,0.259 -0.133,0.118 -0.239,0.262 -0.316,0.438 -0.078,0.174 -0.117,0.377 -0.117,0.607 0,0.455 0.162,0.797 0.486,1.024 0.324,0.226 0.739,0.34 1.244,0.34 0.163,0 0.311,-0.012 0.446,-0.036 C -0.229,0.789 -0.107,0.756 0,0.713 V 1.117 C 0,1.318 -0.051,1.469 -0.152,1.566 -0.254,1.664 -0.434,1.711 -0.691,1.711 -0.86,1.711 -1.026,1.691 -1.188,1.652 -1.352,1.613 -1.534,1.545 -1.737,1.451 l -0.417,0.578 c 0.245,0.127 0.5,0.225 0.767,0.293 0.268,0.069 0.524,0.104 0.768,0.104 0.284,0 0.528,-0.022 0.733,-0.065 C 0.318,2.318 0.486,2.25 0.616,2.152 0.747,2.055 0.841,1.926 0.898,1.768 0.957,1.609 0.986,1.414 0.986,1.182 V -1.82 Z" /></g><g
           transform="translate(73.1729,43.6143)"
           id="g76"><path
             id="path78"
             style="fill:#373535;fill-opacity:1;fill-rule:nonzero;stroke:none"
             d="m 0,0 h -1.127 l -1.342,4.158 h 0.996 l 0.651,-2.242 c 0.019,-0.068 0.044,-0.152 0.071,-0.25 0.026,-0.098 0.054,-0.197 0.081,-0.301 0.027,-0.103 0.051,-0.199 0.071,-0.289 0.02,-0.09 0.037,-0.158 0.051,-0.205 0.007,0.047 0.022,0.117 0.046,0.209 0.023,0.092 0.049,0.191 0.075,0.293 0.028,0.104 0.053,0.205 0.076,0.305 0.025,0.101 0.046,0.185 0.067,0.254 l 0.62,2.226 h 0.995 z" /></g><g
           transform="translate(77.0137,45.4346)"
           id="g80"><path
             id="path82"
             style="fill:#373535;fill-opacity:1;fill-rule:nonzero;stroke:none"
             d="M 0,0 C -0.113,0.059 -0.229,0.1 -0.347,0.123 -0.464,0.146 -0.612,0.16 -0.792,0.16 -1.021,0.16 -1.204,0.105 -1.344,0 c -0.14,-0.105 -0.211,-0.271 -0.211,-0.498 0,-0.248 0.059,-0.43 0.176,-0.547 0.116,-0.117 0.279,-0.174 0.486,-0.174 0.408,0 0.706,0.129 0.893,0.389 z m 0,-1.82 0.01,0.285 c -0.135,-0.123 -0.293,-0.215 -0.473,-0.279 -0.179,-0.063 -0.388,-0.094 -0.624,-0.094 -0.196,0 -0.384,0.029 -0.559,0.088 -0.176,0.056 -0.331,0.144 -0.462,0.259 -0.132,0.118 -0.238,0.262 -0.316,0.438 -0.077,0.174 -0.116,0.377 -0.116,0.607 0,0.455 0.162,0.797 0.485,1.024 0.325,0.226 0.74,0.34 1.245,0.34 0.163,0 0.31,-0.012 0.446,-0.036 C -0.229,0.789 -0.108,0.756 0,0.713 V 1.117 C 0,1.318 -0.051,1.469 -0.152,1.566 -0.254,1.664 -0.434,1.711 -0.691,1.711 -0.86,1.711 -1.026,1.691 -1.188,1.652 -1.352,1.613 -1.534,1.545 -1.737,1.451 l -0.417,0.578 c 0.244,0.127 0.499,0.225 0.767,0.293 0.267,0.069 0.523,0.104 0.767,0.104 0.285,0 0.529,-0.022 0.733,-0.065 C 0.318,2.318 0.485,2.25 0.616,2.152 0.746,2.055 0.84,1.926 0.898,1.768 0.956,1.609 0.985,1.414 0.985,1.182 V -1.82 Z" /></g><g
           transform="translate(81.708,44.7529)"
           id="g84"><path
             id="path86"
             style="fill:#373535;fill-opacity:1;fill-rule:nonzero;stroke:none"
             d="m 0,0 c 0,-0.395 -0.147,-0.699 -0.442,-0.91 -0.294,-0.211 -0.703,-0.317 -1.225,-0.317 -0.284,0 -0.569,0.04 -0.853,0.12 -0.285,0.078 -0.545,0.185 -0.783,0.324 l 0.376,0.635 c 0.488,-0.239 0.901,-0.358 1.24,-0.358 0.217,0 0.387,0.041 0.513,0.123 0.125,0.082 0.188,0.192 0.188,0.328 0,0.075 -0.019,0.141 -0.056,0.2 C -1.078,0.201 -1.138,0.26 -1.218,0.318 -1.3,0.375 -1.405,0.437 -1.537,0.5 -1.668,0.564 -1.825,0.637 -2.007,0.723 -2.169,0.795 -2.319,0.871 -2.457,0.947 -2.596,1.023 -2.712,1.109 -2.806,1.201 -2.9,1.293 -2.975,1.4 -3.028,1.521 c -0.055,0.124 -0.081,0.264 -0.081,0.43 0,0.363 0.132,0.647 0.4,0.85 0.267,0.203 0.646,0.306 1.134,0.306 0.271,0 0.531,-0.035 0.782,-0.103 0.25,-0.068 0.475,-0.164 0.671,-0.285 L -0.519,2.076 c -0.175,0.096 -0.357,0.172 -0.543,0.227 -0.187,0.056 -0.365,0.082 -0.534,0.082 -0.182,0 -0.316,-0.033 -0.401,-0.102 -0.085,-0.068 -0.127,-0.156 -0.127,-0.262 0,-0.062 0.012,-0.121 0.035,-0.169 0.025,-0.051 0.068,-0.102 0.132,-0.157 0.064,-0.05 0.151,-0.109 0.263,-0.17 0.111,-0.058 0.257,-0.13 0.44,-0.209 0.202,-0.089 0.381,-0.177 0.535,-0.261 0.156,-0.084 0.285,-0.178 0.39,-0.278 C -0.225,0.676 -0.144,0.564 -0.087,0.441 -0.029,0.316 0,0.17 0,0" /></g><g
           transform="translate(84.7959,43.7295)"
           id="g88"><path
             id="path90"
             style="fill:#373535;fill-opacity:1;fill-rule:nonzero;stroke:none"
             d="m 0,0 c -0.236,-0.135 -0.548,-0.203 -0.934,-0.203 -0.556,0 -1.004,0.176 -1.346,0.525 -0.343,0.354 -0.513,0.893 -0.513,1.621 0,0.735 0.167,1.282 0.502,1.645 0.336,0.361 0.801,0.543 1.397,0.543 0.19,0 0.361,-0.02 0.513,-0.057 C -0.229,4.037 -0.091,3.984 0.03,3.918 0.153,3.852 0.262,3.773 0.356,3.682 0.45,3.592 0.535,3.494 0.61,3.395 L -0.091,2.918 c -0.136,0.17 -0.264,0.291 -0.387,0.365 -0.121,0.074 -0.27,0.112 -0.447,0.112 -0.31,0 -0.536,-0.125 -0.675,-0.375 -0.138,-0.25 -0.208,-0.604 -0.208,-1.061 0,-0.441 0.071,-0.789 0.213,-1.043 0.142,-0.256 0.376,-0.383 0.701,-0.383 0.164,0 0.305,0.035 0.426,0.108 0.123,0.07 0.251,0.187 0.387,0.351 L 0.62,0.541 C 0.443,0.316 0.237,0.137 0,0" /></g><g
           transform="translate(88.3516,46.9561)"
           id="g92"><path
             id="path94"
             style="fill:#373535;fill-opacity:1;fill-rule:nonzero;stroke:none"
             d="m 0,0 c -0.095,0.043 -0.192,0.074 -0.294,0.096 -0.102,0.021 -0.23,0.031 -0.387,0.031 -0.135,0 -0.267,-0.022 -0.395,-0.066 -0.129,-0.045 -0.251,-0.131 -0.366,-0.258 v -3.145 h -0.986 v 4.158 h 0.986 V 0.531 c 0.108,0.106 0.244,0.194 0.407,0.266 0.162,0.072 0.342,0.107 0.538,0.107 0.169,0 0.312,-0.013 0.432,-0.039 C 0.053,0.838 0.153,0.803 0.233,0.762 Z" /></g><path
           id="path96"
           style="fill:#373535;fill-opacity:1;fill-rule:nonzero;stroke:none"
           d="m 88.962,47.772 h 0.985 v -4.158 h -0.985 z m 1.087,1.118 c 0,-0.127 -0.06,-0.237 -0.178,-0.328 -0.119,-0.094 -0.26,-0.139 -0.422,-0.139 -0.169,0 -0.313,0.045 -0.431,0.139 -0.119,0.091 -0.178,0.201 -0.178,0.328 0,0.132 0.059,0.244 0.178,0.338 0.118,0.091 0.262,0.138 0.431,0.138 0.162,0 0.303,-0.047 0.422,-0.138 0.118,-0.094 0.178,-0.206 0.178,-0.338" /><g
           transform="translate(93.3096,45.6104)"
           id="g98"><path
             id="path100"
             style="fill:#373535;fill-opacity:1;fill-rule:nonzero;stroke:none"
             d="m 0,0 c 0,0.543 -0.065,0.936 -0.196,1.176 -0.131,0.24 -0.338,0.359 -0.621,0.359 -0.162,0 -0.312,-0.033 -0.45,-0.105 C -1.405,1.357 -1.518,1.268 -1.604,1.156 v -2.154 c 0.107,-0.127 0.235,-0.221 0.383,-0.283 0.148,-0.061 0.3,-0.09 0.454,-0.09 0.249,0 0.44,0.105 0.571,0.316 C -0.065,-0.844 0,-0.492 0,0 m 0.986,0.039 c 0,-0.697 -0.147,-1.226 -0.44,-1.584 -0.293,-0.359 -0.703,-0.539 -1.23,-0.539 -0.357,0 -0.665,0.102 -0.92,0.309 V -3.131 L -2.59,-3.525 v 5.687 h 0.986 L -1.615,1.885 c 0.129,0.105 0.267,0.193 0.417,0.261 0.148,0.069 0.343,0.104 0.579,0.104 0.244,0 0.464,-0.037 0.66,-0.111 C 0.237,2.064 0.405,1.939 0.545,1.766 0.684,1.592 0.792,1.363 0.869,1.08 0.947,0.799 0.986,0.451 0.986,0.039" /></g><g
           transform="translate(96.9482,43.7158)"
           id="g102"><path
             id="path104"
             style="fill:#373535;fill-opacity:1;fill-rule:nonzero;stroke:none"
             d="m 0,0 c -0.115,-0.059 -0.244,-0.104 -0.387,-0.139 -0.141,-0.035 -0.304,-0.05 -0.487,-0.05 -0.362,0 -0.626,0.091 -0.79,0.277 C -1.828,0.271 -1.91,0.533 -1.91,0.871 V 3.344 H -2.489 V 4.057 H -1.91 V 5.27 l 0.985,0.404 V 4.057 H 0.102 V 3.344 H -0.925 V 0.943 c 0,-0.148 0.033,-0.254 0.102,-0.318 0.067,-0.063 0.169,-0.094 0.304,-0.094 0.129,0 0.248,0.018 0.356,0.051 0.108,0.035 0.2,0.076 0.274,0.123 z" /></g><g
           transform="translate(101.6621,46.751)"
           id="g106"><path
             id="path108"
             style="fill:#373535;fill-opacity:1;fill-rule:nonzero;stroke:none"
             d="M 0,0 C -0.027,0.09 -0.057,0.193 -0.087,0.312 -0.117,0.432 -0.146,0.549 -0.173,0.666 -0.2,0.781 -0.226,0.889 -0.249,0.986 -0.272,1.084 -0.292,1.16 -0.305,1.211 -0.318,1.16 -0.338,1.084 -0.361,0.986 -0.385,0.889 -0.41,0.781 -0.437,0.67 -0.464,0.557 -0.493,0.439 -0.523,0.32 -0.554,0.201 -0.583,0.094 -0.609,0 L -0.874,-0.936 H 0.264 Z M 0.884,-3.137 0.467,-1.672 H -1.077 L -1.483,-3.137 H -2.54 l 1.747,5.545 h 1.026 l 1.738,-5.545 z" /></g><g
           transform="translate(106.457,43.6143)"
           id="g110"><path
             id="path112"
             style="fill:#373535;fill-opacity:1;fill-rule:nonzero;stroke:none"
             d="m 0,0 v 2.559 c 0,0.347 -0.048,0.595 -0.145,0.744 -0.097,0.148 -0.266,0.22 -0.506,0.22 -0.154,0 -0.298,-0.031 -0.436,-0.097 C -1.224,3.359 -1.339,3.266 -1.433,3.145 V 0 h -0.985 v 4.158 h 0.985 L -1.442,3.873 c 0.108,0.106 0.25,0.193 0.426,0.266 0.176,0.072 0.38,0.107 0.61,0.107 0.514,0 0.876,-0.129 1.082,-0.385 C 0.882,3.605 0.985,3.213 0.985,2.686 V 0 Z" /></g><g
           transform="translate(110.5518,46.7744)"
           id="g114"><path
             id="path116"
             style="fill:#373535;fill-opacity:1;fill-rule:nonzero;stroke:none"
             d="m 0,0 c -0.108,0.127 -0.235,0.221 -0.384,0.281 -0.148,0.061 -0.3,0.09 -0.454,0.09 -0.256,0 -0.447,-0.105 -0.576,-0.316 -0.128,-0.211 -0.191,-0.563 -0.191,-1.053 0,-0.545 0.065,-0.938 0.196,-1.176 0.132,-0.242 0.339,-0.361 0.621,-0.361 0.162,0 0.311,0.035 0.45,0.107 0.138,0.071 0.25,0.162 0.338,0.272 z m 0,-3.16 0.01,0.275 c -0.128,-0.105 -0.268,-0.191 -0.416,-0.261 -0.15,-0.069 -0.343,-0.102 -0.579,-0.102 -0.244,0 -0.465,0.037 -0.661,0.109 -0.197,0.076 -0.365,0.2 -0.503,0.373 -0.139,0.176 -0.247,0.405 -0.326,0.686 -0.077,0.283 -0.116,0.629 -0.116,1.041 0,0.697 0.147,1.226 0.44,1.586 0.294,0.359 0.704,0.539 1.23,0.539 0.358,0 0.664,-0.104 0.921,-0.311 V 2.219 L 0.985,2.615 V -3.16 Z" /></g><g
           transform="translate(116.8408,43.6143)"
           id="g118"><path
             id="path120"
             style="fill:#373535;fill-opacity:1;fill-rule:nonzero;stroke:none"
             d="M 0,0 -0.538,1.076 C -0.572,1.145 -0.611,1.225 -0.655,1.318 -0.7,1.41 -0.745,1.504 -0.793,1.6 -0.84,1.695 -0.883,1.785 -0.92,1.869 -0.957,1.953 -0.982,2.016 -0.996,2.059 -1.017,2.012 -1.045,1.947 -1.083,1.865 -1.12,1.783 -1.16,1.695 -1.204,1.6 -1.248,1.504 -1.292,1.408 -1.336,1.314 -1.381,1.219 -1.419,1.139 -1.453,1.076 L -1.991,0 h -1.068 l 1.555,2.852 -1.453,2.693 h 1.098 l 0.436,-0.879 c 0.034,-0.064 0.073,-0.145 0.117,-0.242 0.044,-0.098 0.09,-0.195 0.137,-0.293 0.047,-0.098 0.09,-0.19 0.128,-0.274 0.036,-0.084 0.062,-0.148 0.075,-0.189 0.021,0.047 0.049,0.113 0.086,0.197 0.038,0.084 0.078,0.176 0.123,0.274 0.044,0.097 0.087,0.193 0.132,0.289 0.044,0.093 0.083,0.174 0.117,0.238 l 0.437,0.879 H 0.995 L -0.458,2.875 1.097,0 Z" /></g><g
           transform="translate(122.3262,43.6143)"
           id="g122"><path
             id="path124"
             style="fill:#373535;fill-opacity:1;fill-rule:nonzero;stroke:none"
             d="M 0,0 V 2.232 2.563 C 0,2.697 0.002,2.832 0.006,2.971 0.009,3.107 0.013,3.234 0.016,3.35 0.02,3.467 0.021,3.551 0.021,3.604 0,3.545 -0.031,3.459 -0.075,3.342 -0.12,3.227 -0.169,3.098 -0.223,2.957 -0.277,2.818 -0.331,2.678 -0.386,2.533 -0.439,2.393 -0.487,2.27 -0.527,2.17 L -1.442,-0.152 -2.356,2.17 c -0.04,0.1 -0.088,0.223 -0.142,0.363 -0.055,0.145 -0.109,0.285 -0.163,0.424 -0.054,0.141 -0.104,0.27 -0.148,0.385 -0.044,0.117 -0.076,0.203 -0.096,0.262 0,-0.053 0.002,-0.137 0.005,-0.254 0.004,-0.116 0.006,-0.243 0.01,-0.379 0.004,-0.139 0.005,-0.274 0.005,-0.408 V 2.232 0 h -0.934 v 5.545 h 1.047 l 0.914,-2.307 c 0.033,-0.084 0.072,-0.183 0.116,-0.3 0.045,-0.116 0.087,-0.233 0.128,-0.352 0.04,-0.119 0.079,-0.231 0.116,-0.334 0.037,-0.102 0.062,-0.178 0.076,-0.225 0.021,0.053 0.048,0.131 0.082,0.235 0.034,0.101 0.072,0.215 0.116,0.336 0.044,0.121 0.088,0.242 0.133,0.365 0.043,0.121 0.082,0.221 0.116,0.301 L -0.06,5.545 H 0.985 L 0.985,0 Z" /></g><g
           transform="translate(124.2979,43.6143)"
           id="g126"><path
             id="path128"
             style="fill:#373535;fill-opacity:1;fill-rule:nonzero;stroke:none"
             d="M 0,0 V 5.545 H 0.985 V 0.76 H 3.262 V 0 Z" /></g><g
           transform="translate(74.168,77.6978)"
           id="g130"><path
             id="path132"
             style="fill:#3180c2;fill-opacity:1;fill-rule:nonzero;stroke:none"
             d="M 0,0 -9.191,9.191 -18.383,0 l 3.253,-3.252 3,2.998 v -1.131 -16.747 c 0,-1.2 0.077,-4.321 -5.456,-4.321 -5.608,0 -5.851,2.942 -5.904,4.856 v 0.57 h -6.985 v -0.57 c 0,-2.91 -0.398,-9.84 12.889,-9.84 11.672,0 11.333,6.371 11.333,8.477 v 17.575 h 0.001 v 1.117 l 2.986,-2.999 z" /></g><g
           transform="translate(33.0381,61.1885)"
           id="g134"><path
             id="path136"
             style="fill:#295179;fill-opacity:1;fill-rule:nonzero;stroke:none"
             d="m 0,0 v -0.541 l -3.976,9.736 v 0.54 z" /></g><g
           transform="translate(29.0625,70.9233)"
           id="g138"><path
             id="path140"
             style="fill:#2a547e;fill-opacity:1;fill-rule:nonzero;stroke:none"
             d="m 0,0 v -0.54 l -4.086,-9.736 v 0.541 z" /></g><path
           id="path142"
           style="fill:#295179;fill-opacity:1;fill-rule:nonzero;stroke:none"
           d="M 34.776,56.384 H 23.189 v 0.539 h 11.587 z" /></g></g><g
       id="g144"><g
         id="g146"><g
           id="g152"><g
             id="g154"><path
               id="path170"
               style="fill:url(#linearGradient168);stroke:none"
               d="M 25.408,76.583 14.173,51.841 h 6.882 l 2.134,5.082 h 11.587 l 2.077,-5.082 h 7.135 L 32.852,76.583 Z m 3.655,-5.659 3.975,-9.736 h -8.061 z" /></g></g></g></g><g
       id="g172"><g
         clip-path="url(#clipPath178)"
         id="g174"><g
           id="g180"><g
             id="g182" /><g
             id="g194"><g
               id="g192"
               clip-path="url(#clipPath186)"><g
                 id="g190"
                 transform="translate(24.9736,61.1885)"><path
                   id="path188"
                   style="fill:#2c79bd;fill-opacity:1;fill-rule:nonzero;stroke:none"
                   d="M 0,0 H 8.063 L 4.087,9.735 0,0 M 7.875,15.394 19.013,-9.348 H 11.882 L 9.805,-4.266 H -1.787 l -2.135,-5.082 h -6.876 L 0.437,15.394 Z" /></g></g></g></g><path
           id="path196"
           style="fill:#295179;fill-opacity:1;fill-rule:nonzero;stroke:none"
           d="m 21.055,51.3 h -6.882 v 0.541 h 6.882 z" /><g
           transform="translate(23.1895,56.9229)"
           id="g198"><path
             id="path200"
             style="fill:#2a547e;fill-opacity:1;fill-rule:nonzero;stroke:none"
             d="m 0,0 v -0.539 l -2.135,-5.084 v 0.541 z" /></g><path
           id="path202"
           style="fill:#295179;fill-opacity:1;fill-rule:nonzero;stroke:none"
           d="m 43.988,51.3 h -7.135 v 0.541 h 7.135 z" /><g
           transform="translate(36.8535,51.8408)"
           id="g204"><path
             id="path206"
             style="fill:#295179;fill-opacity:1;fill-rule:nonzero;stroke:none"
             d="M 0,0 V -0.541 L -2.077,4.543 V 5.082 Z" /></g><g
           id="g208"><g
             id="g210" /><g
             id="g240"><g
               id="g238"
               clip-path="url(#clipPath214)"><g
                 id="g218"
                 transform="translate(33.0381,61.5381)"><path
                   id="path216"
                   style="fill:#ffffff;fill-opacity:1;fill-rule:nonzero;stroke:none"
                   d="m 0,0 v -0.539 l -3.976,9.735 v 0.54 z" /></g><g
                 id="g222"
                 transform="translate(29.0625,71.2739)"><path
                   id="path220"
                   style="fill:#ffffff;fill-opacity:1;fill-rule:nonzero;stroke:none"
                   d="m 0,0 v -0.54 l -4.086,-9.735 v 0.539 z" /></g><path
                 id="path224"
                 style="fill:#ffffff;fill-opacity:1;fill-rule:nonzero;stroke:none"
                 d="M 34.776,56.733 H 23.189 v 0.541 h 11.587 z" /><path
                 id="path226"
                 style="fill:#ffffff;fill-opacity:1;fill-rule:nonzero;stroke:none"
                 d="m 21.055,51.651 h -6.882 v 0.539 h 6.882 z" /><g
                 id="g230"
                 transform="translate(23.1895,57.2744)"><path
                   id="path228"
                   style="fill:#ffffff;fill-opacity:1;fill-rule:nonzero;stroke:none"
                   d="m 0,0 v -0.541 l -2.135,-5.082 v 0.539 z" /></g><path
                 id="path232"
                 style="fill:#ffffff;fill-opacity:1;fill-rule:nonzero;stroke:none"
                 d="m 43.988,51.651 h -7.135 v 0.539 h 7.135 z" /><g
                 id="g236"
                 transform="translate(36.8535,52.1904)"><path
                   id="path234"
                   style="fill:#ffffff;fill-opacity:1;fill-rule:nonzero;stroke:none"
                   d="M 0,0 V -0.539 L -2.077,4.543 V 5.084 Z" /></g></g></g></g></g></g><g
       id="g242"><g
         id="g244"><g
           id="g250"><g
             id="g252"><path
               id="path268"
               style="fill:url(#linearGradient266);stroke:none"
               d="M 79.49,76.583 68.255,51.841 h 6.877 l 2.134,5.082 h 11.591 l 2.077,-5.082 h 7.132 L 86.927,76.583 Z m 3.649,-5.659 3.977,-9.736 h -8.064 z" /></g></g></g></g><g
       id="g270"><g
         clip-path="url(#clipPath276)"
         id="g272"><g
           transform="translate(87.1152,61.1885)"
           id="g278"><path
             id="path280"
             style="fill:#295179;fill-opacity:1;fill-rule:nonzero;stroke:none"
             d="m 0,0 v -0.541 l -3.976,9.736 v 0.54 z" /></g><g
           transform="translate(83.1396,70.9233)"
           id="g282"><path
             id="path284"
             style="fill:#2a547e;fill-opacity:1;fill-rule:nonzero;stroke:none"
             d="m 0,0 v -0.54 l -4.087,-9.736 v 0.541 z" /></g><path
           id="path286"
           style="fill:#295179;fill-opacity:1;fill-rule:nonzero;stroke:none"
           d="M 88.857,56.384 H 77.265 v 0.539 h 11.592 z" /><path
           id="path288"
           style="fill:#295179;fill-opacity:1;fill-rule:nonzero;stroke:none"
           d="m 75.132,51.3 h -6.877 v 0.541 h 6.877 z" /><g
           transform="translate(77.2656,56.9229)"
           id="g290"><path
             id="path292"
             style="fill:#2a547e;fill-opacity:1;fill-rule:nonzero;stroke:none"
             d="m 0,0 v -0.539 l -2.134,-5.084 v 0.541 z" /></g><path
           id="path294"
           style="fill:#295179;fill-opacity:1;fill-rule:nonzero;stroke:none"
           d="m 98.065,51.3 h -7.131 v 0.541 h 7.131 z" /><g
           transform="translate(90.9346,51.8408)"
           id="g296"><path
             id="path298"
             style="fill:#295179;fill-opacity:1;fill-rule:nonzero;stroke:none"
             d="M 0,0 V -0.541 L -2.077,4.543 V 5.082 Z" /></g><g
           id="g300"><g
             id="g302" /><g
             id="g332"><g
               id="g330"
               clip-path="url(#clipPath306)"><g
                 id="g310"
                 transform="translate(87.1152,61.5381)"><path
                   id="path308"
                   style="fill:#ffffff;fill-opacity:1;fill-rule:nonzero;stroke:none"
                   d="m 0,0 v -0.539 l -3.976,9.735 v 0.54 z" /></g><g
                 id="g314"
                 transform="translate(83.1396,71.2739)"><path
                   id="path312"
                   style="fill:#ffffff;fill-opacity:1;fill-rule:nonzero;stroke:none"
                   d="m 0,0 v -0.54 l -4.087,-9.735 v 0.539 z" /></g><path
                 id="path316"
                 style="fill:#ffffff;fill-opacity:1;fill-rule:nonzero;stroke:none"
                 d="M 88.857,56.733 H 77.265 v 0.541 h 11.592 z" /><path
                 id="path318"
                 style="fill:#ffffff;fill-opacity:1;fill-rule:nonzero;stroke:none"
                 d="m 75.132,51.651 h -6.877 v 0.539 h 6.877 z" /><g
                 id="g322"
                 transform="translate(77.2656,57.2744)"><path
                   id="path320"
                   style="fill:#ffffff;fill-opacity:1;fill-rule:nonzero;stroke:none"
                   d="m 0,0 v -0.541 l -2.134,-5.082 v 0.539 z" /></g><path
                 id="path324"
                 style="fill:#ffffff;fill-opacity:1;fill-rule:nonzero;stroke:none"
                 d="m 98.065,51.651 h -7.131 v 0.539 h 7.131 z" /><g
                 id="g328"
                 transform="translate(90.9346,52.1904)"><path
                   id="path326"
                   style="fill:#ffffff;fill-opacity:1;fill-rule:nonzero;stroke:none"
                   d="M 0,0 V -0.539 L -2.077,4.543 V 5.084 Z" /></g></g></g></g></g></g><g
       id="g334"><g
         id="g336"><g
           id="g342"><g
             id="g344"><path
               id="path360"
               style="fill:url(#linearGradient358);stroke:none"
               d="m 119.36,76.583 -5.767,-8.061 -5.615,8.061 H 100.12 L 109.751,64.445 99.63,51.841 h 7.644 l 6.319,8.434 5.98,-8.434 h 7.987 l -10.229,12.804 9.631,11.938 z" /></g></g></g></g><g
       id="g362"><g
         clip-path="url(#clipPath368)"
         id="g364"><g
           transform="translate(126.9619,76.5825)"
           id="g370"><path
             id="path372"
             style="fill:#29527a;fill-opacity:1;fill-rule:nonzero;stroke:none"
             d="m 0,0 v -0.541 l -9.631,-11.935 v 0.539 z" /></g><g
           transform="translate(109.751,64.4443)"
           id="g374"><path
             id="path376"
             style="fill:#295179;fill-opacity:1;fill-rule:nonzero;stroke:none"
             d="m 0,0 v -0.539 l -9.631,12.136 v 0.541 z" /></g><g
           transform="translate(119.5732,51.8408)"
           id="g378"><path
             id="path380"
             style="fill:#295179;fill-opacity:1;fill-rule:nonzero;stroke:none"
             d="M 0,0 V -0.541 L -5.98,7.895 V 8.434 Z" /></g><path
           id="path382"
           style="fill:#295179;fill-opacity:1;fill-rule:nonzero;stroke:none"
           d="m 107.273,51.3 h -7.644 v 0.541 h 7.644 z" /><g
           transform="translate(113.5928,60.2744)"
           id="g384"><path
             id="path386"
             style="fill:#29537b;fill-opacity:1;fill-rule:nonzero;stroke:none"
             d="m 0,0 v -0.539 l -6.319,-8.436 v 0.541 z" /></g><path
           id="path388"
           style="fill:#295179;fill-opacity:1;fill-rule:nonzero;stroke:none"
           d="m 127.56,51.3 h -7.986 v 0.541 h 7.986 z" /><g
           id="g390"><g
             id="g392" /><g
             id="g420"><g
               id="g418"
               clip-path="url(#clipPath396)"><g
                 id="g400"
                 transform="translate(126.9619,76.9321)"><path
                   id="path398"
                   style="fill:#ffffff;fill-opacity:1;fill-rule:nonzero;stroke:none"
                   d="m 0,0 v -0.539 l -9.631,-11.937 v 0.541 z" /></g><g
                 id="g404"
                 transform="translate(109.751,64.7959)"><path
                   id="path402"
                   style="fill:#ffffff;fill-opacity:1;fill-rule:nonzero;stroke:none"
                   d="m 0,0 v -0.541 l -9.631,12.138 v 0.539 z" /></g><g
                 id="g408"
                 transform="translate(119.5732,52.1904)"><path
                   id="path406"
                   style="fill:#ffffff;fill-opacity:1;fill-rule:nonzero;stroke:none"
                   d="M 0,0 V -0.539 L -5.98,7.895 V 8.434 Z" /></g><path
                 id="path410"
                 style="fill:#ffffff;fill-opacity:1;fill-rule:nonzero;stroke:none"
                 d="m 107.273,51.651 h -7.644 v 0.539 h 7.644 z" /><g
                 id="g414"
                 transform="translate(113.5928,60.624)"><path
                   id="path412"
                   style="fill:#ffffff;fill-opacity:1;fill-rule:nonzero;stroke:none"
                   d="m 0,0 v -0.539 l -6.319,-8.434 v 0.539 z" /></g><path
                 id="path416"
                 style="fill:#ffffff;fill-opacity:1;fill-rule:nonzero;stroke:none"
                 d="m 127.56,51.651 h -7.986 v 0.539 h 7.986 z" /></g></g></g></g></g><g
       id="g422"><g
         clip-path="url(#clipPath428)"
         id="g424"><g
           transform="translate(62.0381,59.7393)"
           id="g430"><path
             id="path432"
             style="fill:#2a547d;fill-opacity:1;fill-rule:nonzero;stroke:none"
             d="m 0,0 v -0.539 0.1 0.539 z" /></g></g></g><g
       id="g434"><g
         clip-path="url(#clipPath440)"
         id="g436"><g
           transform="translate(62.0381,77.7104)"
           id="g442"><path
             id="path444"
             style="fill:#29527a;fill-opacity:1;fill-rule:nonzero;stroke:none"
             d="m 0,0 v -0.54 l -3,-2.994 v 0.54 z" /></g><g
           transform="translate(59.0381,74.7163)"
           id="g446"><path
             id="path448"
             style="fill:#295179;fill-opacity:1;fill-rule:nonzero;stroke:none"
             d="M 0,0 V -0.54 L -3.253,2.707 V 3.248 Z" /></g><g
           transform="translate(70.9023,74.6987)"
           id="g450"><path
             id="path452"
             style="fill:#295179;fill-opacity:1;fill-rule:nonzero;stroke:none"
             d="m 0,0 v -0.541 l -2.985,2.999 v 0.54 z" /></g><g
           transform="translate(74.1689,77.9644)"
           id="g454"><path
             id="path456"
             style="fill:#29527a;fill-opacity:1;fill-rule:nonzero;stroke:none"
             d="m 0,0 v -0.541 l -3.267,-3.266 v 0.541 z" /></g></g></g><g
       id="g458"><g
         clip-path="url(#clipPath464)"
         id="g460"><g
           transform="translate(67.918,58.6279)"
           id="g466"><path
             id="path468"
             style="fill:#2b5985;fill-opacity:1;fill-rule:nonzero;stroke:none"
             d="M 0,0 V -0.541 C 0,-0.977 -0.011,-1.52 -0.093,-2.117 v 0.539 C -0.011,-0.979 0,-0.436 0,0" /></g><g
           transform="translate(67.8252,57.0498)"
           id="g470"><path
             id="path472"
             style="fill:#2b5782;fill-opacity:1;fill-rule:nonzero;stroke:none"
             d="m 0,0 v -0.539 c -0.053,-0.383 -0.134,-0.787 -0.262,-1.199 v 0.539 C -0.134,-0.785 -0.053,-0.381 0,0" /></g><g
           transform="translate(67.5635,55.8506)"
           id="g474"><path
             id="path476"
             style="fill:#2a557f;fill-opacity:1;fill-rule:nonzero;stroke:none"
             d="m 0,0 v -0.539 c -0.114,-0.369 -0.264,-0.744 -0.462,-1.117 v 0.541 C -0.264,-0.744 -0.114,-0.367 0,0" /></g><g
           transform="translate(67.1016,54.7354)"
           id="g478"><path
             id="path480"
             style="fill:#2a547d;fill-opacity:1;fill-rule:nonzero;stroke:none"
             d="m 0,0 v -0.541 c -1.149,-2.154 -3.906,-4.199 -10.519,-4.199 -12.533,0 -12.889,6.162 -12.889,9.304 v 0.54 c 0,-3.141 0.356,-9.303 12.889,-9.303 6.613,0 9.37,2.045 10.519,4.199" /></g></g></g><g
       id="g482"><g
         id="g484"><g
           id="g490"><g
             id="g492"><path
               id="path510"
               style="fill:url(#linearGradient508);stroke:none"
               d="m 55.786,77.964 3.252,-3.248 3,2.994 V 76.584 59.839 c 0,-1.2 0.075,-4.323 -5.455,-4.323 v 0 c -5.612,0 -5.852,2.942 -5.905,4.858 v 0 0.57 h -6.984 v -0.57 c 0,-2.91 -0.401,-9.838 12.889,-9.838 v 0 c 11.672,0 11.334,6.371 11.334,8.472 v 0 17.576 1.113 l 2.985,-2.998 3.267,3.265 -9.194,9.192 z" /></g></g></g></g><g
       id="g512"><g
         clip-path="url(#clipPath518)"
         id="g514"><g
           transform="translate(44.1895,91.1733)"
           id="g520"><path
             id="path522"
             style="fill:#2a547d;fill-opacity:1;fill-rule:nonzero;stroke:none"
             d="m 0,0 v -0.54 c 0,0.116 -0.001,0.244 -0.001,0.383 v 0.54 C -0.001,0.244 0,0.116 0,0" /></g></g></g><g
       id="g524"><g
         clip-path="url(#clipPath530)"
         id="g526"><g
           transform="translate(68.417,90.3384)"
           id="g532"><path
             id="path534"
             style="fill:#2b5985;fill-opacity:1;fill-rule:nonzero;stroke:none"
             d="m 0,0 v -0.541 c 0,-0.187 -0.001,-0.363 -0.001,-0.527 v 0.54 C -0.001,-0.364 0,-0.187 0,0" /></g></g></g><g
       id="g536"><g
         id="g538"><g
           id="g544"><g
             id="g546"><path
               id="path560"
               style="fill:url(#linearGradient558);stroke:none"
               d="M 44.189,91.174 V 73.598 72.483 l -2.986,2.998 -3.266,-3.267 9.189,-9.191 9.194,9.191 -3.253,3.249 -3,-2.994 v 1.129 16.748 c 0,1.198 -0.08,4.316 5.456,4.316 v 0 c 5.606,0 5.851,-2.936 5.905,-4.852 v 0 -0.57 h 6.988 v 0.57 c 0,2.91 0.396,9.838 -12.893,9.838 v 0 c -11.672,0 -11.334,-6.371 -11.334,-8.474" /></g></g></g></g><g
       id="g562"><g
         clip-path="url(#clipPath568)"
         id="g564"><g
           id="g570"><g
             id="g572" /><g
             id="g584"><g
               id="g582"
               clip-path="url(#clipPath576)"><g
                 id="g580"
                 transform="translate(79.0527,61.1885)"><path
                   id="path578"
                   style="fill:#2c79bd;fill-opacity:1;fill-rule:nonzero;stroke:none"
                   d="M 0,0 H 8.063 L 4.087,9.735 0,0 M 7.875,15.394 19.013,-9.348 H 11.882 L 9.805,-4.266 H -1.787 l -2.134,-5.082 h -6.877 L 0.437,15.394 Z" /></g></g></g></g><g
           id="g586"><g
             id="g588" /><g
             id="g600"><g
               id="g598"
               clip-path="url(#clipPath592)"><g
                 id="g596"
                 transform="translate(117.3311,64.6455)"><path
                   id="path594"
                   style="fill:#2c79bd;fill-opacity:1;fill-rule:nonzero;stroke:none"
                   d="M 0,0 10.229,-12.805 H 2.242 l -5.98,8.434 -6.32,-8.434 h -7.643 l 10.121,12.604 -9.631,12.138 h 7.857 l 5.616,-8.06 5.766,8.06 h 7.603 z" /></g></g></g></g><g
           id="g602"><g
             id="g604" /><g
             id="g616"><g
               id="g614"
               clip-path="url(#clipPath608)"><g
                 id="g612"
                 transform="translate(64.9746,87.1563)"><path
                   id="path610"
                   style="fill:#2c79bd;fill-opacity:1;fill-rule:nonzero;stroke:none"
                   d="m 0,0 9.194,-9.192 -3.266,-3.266 -2.986,2.999 v -1.114 -17.574 c 0,-2.102 0.338,-8.473 -11.334,-8.473 -13.29,0 -12.888,6.928 -12.888,9.838 v 0.57 h 6.983 v -0.57 c 0.054,-1.916 0.294,-4.858 5.905,-4.858 5.531,0 5.455,3.123 5.455,4.323 v 16.744 1.127 l -3,-2.994 -3.252,3.248 z" /></g></g></g></g><g
           id="g618"><g
             id="g620" /><g
             id="g632"><g
               id="g630"
               clip-path="url(#clipPath624)"><g
                 id="g628"
                 transform="translate(55.5225,99.6479)"><path
                   id="path626"
                   style="fill:#2c79bd;fill-opacity:1;fill-rule:nonzero;stroke:none"
                   d="m 0,0 c 13.29,0 12.894,-6.928 12.894,-9.837 v -0.571 H 5.905 v 0.571 C 5.852,-7.922 5.606,-4.986 0,-4.986 c -5.535,0 -5.455,-3.118 -5.455,-4.317 v -16.748 -1.128 l 2.999,2.994 3.254,-3.249 -9.194,-9.191 -9.19,9.191 3.267,3.267 2.986,-2.998 v 1.114 17.576 C -11.333,-6.371 -11.672,0 0,0" /></g></g></g></g></g></g><g
       id="g634"><g
         clip-path="url(#clipPath640)"
         id="g636"><g
           transform="translate(61.4277,89.8105)"
           id="g642"><path
             id="path644"
             style="fill:#2a547d;fill-opacity:1;fill-rule:nonzero;stroke:none"
             d="m 0,0 v -0.541 c -0.054,1.916 -0.299,4.853 -5.905,4.853 -3.115,0 -4.451,-0.988 -5.026,-2.064 v 0.54 c 0.575,1.077 1.911,2.064 5.026,2.064 C -0.299,4.852 -0.054,1.916 0,0" /></g><g
           transform="translate(50.4971,92.5981)"
           id="g646"><path
             id="path648"
             style="fill:#2a557f;fill-opacity:1;fill-rule:nonzero;stroke:none"
             d="m 0,0 v -0.54 c -0.102,-0.192 -0.18,-0.387 -0.239,-0.58 v 0.541 C -0.18,-0.387 -0.102,-0.192 0,0" /></g><g
           transform="translate(50.2578,92.019)"
           id="g650"><path
             id="path652"
             style="fill:#2b5782;fill-opacity:1;fill-rule:nonzero;stroke:none"
             d="m 0,0 v -0.541 c -0.067,-0.218 -0.111,-0.434 -0.14,-0.64 v 0.54 C -0.111,-0.436 -0.067,-0.219 0,0" /></g><g
           transform="translate(50.1182,91.3779)"
           id="g654"><path
             id="path656"
             style="fill:#2b5985;fill-opacity:1;fill-rule:nonzero;stroke:none"
             d="m 0,0 v -0.54 c -0.048,-0.352 -0.051,-0.673 -0.051,-0.927 v 0.539 c 0,0.255 0.003,0.576 0.051,0.928" /></g></g></g><g
       id="g658"><g
         clip-path="url(#clipPath664)"
         id="g660"><path
           id="path666"
           style="fill:#295179;fill-opacity:1;fill-rule:nonzero;stroke:none"
           d="m 68.416,88.7 h -6.988 v 0.54 h 6.988 z" /><g
           transform="translate(56.3203,72.2144)"
           id="g668"><path
             id="path670"
             style="fill:#29527a;fill-opacity:1;fill-rule:nonzero;stroke:none"
             d="m 0,0 v -0.539 l -9.194,-9.192 v 0.539 z" /></g><g
           transform="translate(47.126,63.0225)"
           id="g672"><path
             id="path674"
             style="fill:#295179;fill-opacity:1;fill-rule:nonzero;stroke:none"
             d="M 0,0 V -0.539 L -9.189,8.653 V 9.192 Z" /></g><g
           id="g676"><g
             id="g678" /><g
             id="g724"><g
               id="g722"
               clip-path="url(#clipPath682)"><g
                 id="g690"
                 transform="translate(50.0674,90.2612)"><path
                   id="path688"
                   style="fill:#ffffff;fill-opacity:1;fill-rule:nonzero;stroke:none"
                   d="m 0,0 v 0.54 c 0,1.266 0.075,4.211 5.455,4.211 5.607,0 5.852,-2.936 5.905,-4.851 V -0.641 C 11.307,1.275 11.062,4.211 5.455,4.211 0.075,4.211 0,1.266 0,0" /></g><g
                 id="g710"><g
                   id="g708"
                   clip-path="url(#clipPath686)"><g
                     id="g694"
                     transform="translate(61.4277,90.1611)"><path
                       id="path692"
                       style="fill:#ffffff;fill-opacity:1;fill-rule:nonzero;stroke:none"
                       d="m 0,0 v -0.541 c -0.054,1.916 -0.299,4.853 -5.905,4.853 -3.115,0 -4.451,-0.988 -5.026,-2.064 v 0.54 c 0.575,1.077 1.911,2.064 5.026,2.064 C -0.299,4.852 -0.054,1.916 0,0" /></g><g
                     id="g698"
                     transform="translate(50.4971,92.9487)"><path
                       id="path696"
                       style="fill:#ffffff;fill-opacity:1;fill-rule:nonzero;stroke:none"
                       d="m 0,0 v -0.54 c -0.102,-0.192 -0.18,-0.387 -0.239,-0.58 v 0.541 C -0.18,-0.387 -0.102,-0.192 0,0" /></g><g
                     id="g702"
                     transform="translate(50.2578,92.3696)"><path
                       id="path700"
                       style="fill:#ffffff;fill-opacity:1;fill-rule:nonzero;stroke:none"
                       d="m 0,0 v -0.541 c -0.067,-0.218 -0.111,-0.434 -0.14,-0.64 v 0.54 C -0.111,-0.436 -0.067,-0.219 0,0" /></g><g
                     id="g706"
                     transform="translate(50.1182,91.7285)"><path
                       id="path704"
                       style="fill:#ffffff;fill-opacity:1;fill-rule:nonzero;stroke:none"
                       d="m 0,0 v -0.54 c -0.048,-0.352 -0.051,-0.673 -0.051,-0.927 v 0.539 c 0,0.255 0.003,0.576 0.051,0.928" /></g></g></g><path
                 id="path712"
                 style="fill:#ffffff;fill-opacity:1;fill-rule:nonzero;stroke:none"
                 d="m 68.416,89.05 h -6.988 v 0.54 h 6.988 z" /><g
                 id="g716"
                 transform="translate(56.3203,72.5659)"><path
                   id="path714"
                   style="fill:#ffffff;fill-opacity:1;fill-rule:nonzero;stroke:none"
                   d="m 0,0 v -0.541 l -9.194,-9.192 v 0.541 z" /></g><g
                 id="g720"
                 transform="translate(47.126,63.374)"><path
                   id="path718"
                   style="fill:#ffffff;fill-opacity:1;fill-rule:nonzero;stroke:none"
                   d="M 0,0 V -0.541 L -9.189,8.651 V 9.192 Z" /></g></g></g></g><g
           id="g726"><g
             id="g728" /><g
             id="g780"><g
               id="g778"
               clip-path="url(#clipPath732)"><g
                 id="g740"
                 transform="translate(62.0381,78.061)"><path
                   id="path738"
                   style="fill:#ffffff;fill-opacity:1;fill-rule:nonzero;stroke:none"
                   d="m 0,0 v -0.541 l -3,-2.993 v 0.54 z" /></g><g
                 id="g744"
                 transform="translate(59.0381,75.0669)"><path
                   id="path742"
                   style="fill:#ffffff;fill-opacity:1;fill-rule:nonzero;stroke:none"
                   d="M 0,0 V -0.54 L -3.253,2.708 V 3.247 Z" /></g><g
                 id="g748"
                 transform="translate(70.9023,75.0493)"><path
                   id="path746"
                   style="fill:#ffffff;fill-opacity:1;fill-rule:nonzero;stroke:none"
                   d="m 0,0 v -0.541 l -2.985,2.999 v 0.54 z" /></g><g
                 id="g752"
                 transform="translate(74.1689,78.314)"><path
                   id="path750"
                   style="fill:#ffffff;fill-opacity:1;fill-rule:nonzero;stroke:none"
                   d="m 0,0 v -0.539 l -3.267,-3.267 v 0.541 z" /></g><g
                 id="g756"
                 transform="translate(67.918,58.9775)"><path
                   id="path754"
                   style="fill:#ffffff;fill-opacity:1;fill-rule:nonzero;stroke:none"
                   d="m 0,0 v -0.539 c 0,-2.4 -0.303,-8.092 -11.335,-8.092 -12.533,0 -12.89,6.16 -12.89,9.303 v 0.541 c 0,-3.143 0.357,-9.305 12.89,-9.305 C -0.303,-8.092 0,-2.398 0,0" /></g><g
                 id="g776"><g
                   id="g774"
                   clip-path="url(#clipPath736)"><g
                     id="g760"
                     transform="translate(67.918,58.9775)"><path
                       id="path758"
                       style="fill:#ffffff;fill-opacity:1;fill-rule:nonzero;stroke:none"
                       d="m 0,0 v -0.539 c 0,-0.436 -0.011,-0.979 -0.093,-1.578 v 0.541 C -0.011,-0.979 0,-0.436 0,0" /></g><g
                     id="g764"
                     transform="translate(67.8252,57.4014)"><path
                       id="path762"
                       style="fill:#ffffff;fill-opacity:1;fill-rule:nonzero;stroke:none"
                       d="M 0,0 V -0.541 C -0.053,-0.922 -0.134,-1.326 -0.262,-1.74 v 0.541 C -0.134,-0.787 -0.053,-0.383 0,0" /></g><g
                     id="g768"
                     transform="translate(67.5635,56.2021)"><path
                       id="path766"
                       style="fill:#ffffff;fill-opacity:1;fill-rule:nonzero;stroke:none"
                       d="m 0,0 v -0.541 c -0.114,-0.367 -0.264,-0.744 -0.462,-1.115 v 0.541 C -0.264,-0.744 -0.114,-0.369 0,0" /></g><g
                     id="g772"
                     transform="translate(67.1016,55.0869)"><path
                       id="path770"
                       style="fill:#ffffff;fill-opacity:1;fill-rule:nonzero;stroke:none"
                       d="m 0,0 v -0.541 c -1.149,-2.156 -3.906,-4.199 -10.519,-4.199 -12.533,0 -12.889,6.16 -12.889,9.302 v 0.542 c 0,-3.143 0.356,-9.305 12.889,-9.305 6.613,0 9.37,2.045 10.519,4.201" /></g></g></g></g></g></g></g></g></g></svg>